<?xml version="1.0" encoding="UTF-8"?>
<svg version="1.1" xmlns="http://www.w3.org/2000/svg" width="1284" height="2778">
<path d="M0 0 C9.63112712 -0.02312465 19.26224474 -0.04091571 28.89339352 -0.05181217 C33.36505549 -0.05704074 37.83669853 -0.06413789 42.30834961 -0.07543945 C46.62011973 -0.08626929 50.93187159 -0.09227704 55.24365425 -0.09487724 C56.89236298 -0.09673132 58.54107066 -0.1003516 60.18977165 -0.10573006 C62.49103872 -0.11294178 64.7922294 -0.11399089 67.09350586 -0.11352539 C68.4058873 -0.115746 69.71826874 -0.11796661 71.07041931 -0.12025452 C74 0 74 0 75 1 C75.09924517 3.23794652 75.12632428 5.47909235 75.12698364 7.71923828 C75.12854363 8.42992525 75.13010362 9.14061222 75.13171089 9.87283516 C75.13572329 12.2720149 75.13253033 14.6711322 75.12939453 17.0703125 C75.13074847 18.78310178 75.13252835 20.49589077 75.13470459 22.2086792 C75.13927985 26.87383482 75.13748898 31.53896843 75.1343255 36.20412445 C75.13180238 41.07504844 75.13413931 45.94597048 75.13571167 50.81689453 C75.13753351 58.99837586 75.13512669 67.17984817 75.13037109 75.36132812 C75.12492845 84.83449335 75.12669109 94.30763707 75.1321975 103.78080177 C75.13672823 111.89881894 75.13737937 120.01682962 75.13475883 128.13484764 C75.13319583 132.99015023 75.1330029 137.84544268 75.13629532 142.70074463 C75.13917346 147.2642849 75.13719941 151.82779729 75.13140106 156.39133453 C75.13007315 158.07119958 75.1304681 159.75106695 75.13266373 161.43093109 C75.13537404 163.71424018 75.1319956 165.9974585 75.12698364 168.28076172 C75.12660662 169.56167694 75.12622959 170.84259216 75.12584114 172.162323 C75 175 75 175 74 176 C72.07290845 176.11832182 70.14153199 176.16738878 68.2109375 176.18945312 C66.9729541 176.20617065 65.7349707 176.22288818 64.45947266 176.2401123 C63.79393372 176.24679428 63.12839478 176.25347626 62.44268799 176.26036072 C60.36714406 176.28132937 58.29175933 176.30835589 56.21630859 176.33703613 C51.06135919 176.40699252 45.9062967 176.46631775 40.7512207 176.52606201 C36.39782035 176.57691728 32.04450519 176.63172213 27.69122314 176.69187927 C25.64101664 176.71854171 23.59080261 176.73930304 21.54052734 176.7598877 C20.30254395 176.77660522 19.06456055 176.79332275 17.7890625 176.81054688 C16.69287598 176.82307495 15.59668945 176.83560303 14.46728516 176.84851074 C12.05606068 176.72312481 12.05606068 176.72312481 11 178 C9.00217874 178.15825258 6.99911166 178.25119171 4.99609375 178.31640625 C3.17368164 178.37924805 3.17368164 178.37924805 1.31445312 178.44335938 C0.03505859 178.48267578 -1.24433594 178.52199219 -2.5625 178.5625 C-3.84576172 178.60568359 -5.12902344 178.64886719 -6.45117188 178.69335938 C-9.63399853 178.799848 -12.81690674 178.90185962 -16 179 C-16.33 179.66 -16.66 180.32 -17 181 C-23.6 181 -30.2 181 -37 181 C-37 181.66 -37 182.32 -37 183 C-38.07121094 183.06058594 -39.14242187 183.12117188 -40.24609375 183.18359375 C-41.64324391 183.26798537 -43.04037857 183.35263406 -44.4375 183.4375 C-45.14455078 183.47681641 -45.85160156 183.51613281 -46.58007812 183.55664062 C-50.08690419 183.47624438 -50.08690419 183.47624438 -53 185 C-55.84087552 185.28318854 -58.68165215 185.44850213 -61.53125 185.62109375 C-62.3459375 185.74613281 -63.160625 185.87117188 -64 186 C-64.33 186.66 -64.66 187.32 -65 188 C-68.96 188 -72.92 188 -77 188 C-77 188.66 -77 189.32 -77 190 C-77.95712891 190.07347656 -77.95712891 190.07347656 -78.93359375 190.1484375 C-80.17302734 190.26058594 -80.17302734 190.26058594 -81.4375 190.375 C-82.26121094 190.44460938 -83.08492187 190.51421875 -83.93359375 190.5859375 C-84.61550781 190.72257812 -85.29742188 190.85921875 -86 191 C-86.33 191.66 -86.66 192.32 -87 193 C-89.97 193 -92.94 193 -96 193 C-96 193.66 -96 194.32 -96 195 C-97.155 195.103125 -98.31 195.20625 -99.5 195.3125 C-104.01171519 195.86035113 -107.80605749 197.2774879 -112 199 C-112 199.33 -112 199.66 -112 200 C-114.64 200 -117.28 200 -120 200 C-120 200.66 -120 201.32 -120 202 C-120.85464844 202.19335938 -121.70929688 202.38671875 -122.58984375 202.5859375 C-123.69457031 202.84632813 -124.79929687 203.10671875 -125.9375 203.375 C-127.03964844 203.63023437 -128.14179687 203.88546875 -129.27734375 204.1484375 C-130.17582031 204.42945313 -131.07429688 204.71046875 -132 205 C-132.33 205.66 -132.66 206.32 -133 207 C-134.98 207 -136.96 207 -139 207 C-139 207.66 -139 208.32 -139 209 C-140.98 209 -142.96 209 -145 209 C-145 209.99 -145 210.98 -145 212 C-146.98 212 -148.96 212 -151 212 C-151 212.66 -151 213.32 -151 214 C-152.65 214 -154.3 214 -156 214 C-156 214.66 -156 215.32 -156 216 C-157.65 216.33 -159.3 216.66 -161 217 C-161 217.66 -161 218.32 -161 219 C-162.65 219 -164.3 219 -166 219 C-166 219.66 -166 220.32 -166 221 C-167.65 221 -169.3 221 -171 221 C-171 221.66 -171 222.32 -171 223 C-171.639375 223.12375 -172.27875 223.2475 -172.9375 223.375 C-173.618125 223.58125 -174.29875 223.7875 -175 224 C-175.33 224.66 -175.66 225.32 -176 226 C-177.32 226 -178.64 226 -180 226 C-180 226.66 -180 227.32 -180 228 C-180.5775 228.268125 -181.155 228.53625 -181.75 228.8125 C-184.00615817 229.90703424 -184.00615817 229.90703424 -185.75 231.4375 C-188.95672314 233.66439107 -192.31800435 234.71130152 -196 236 C-196 236.66 -196 237.32 -196 238 C-197.32 238 -198.64 238 -200 238 C-200 238.66 -200 239.32 -200 240 C-201.32 240 -202.64 240 -204 240 C-204 240.66 -204 241.32 -204 242 C-205.25 243.625 -205.25 243.625 -207 245 C-208.32 245 -209.64 245 -211 245 C-211 245.66 -211 246.32 -211 247 C-211.99 247 -212.98 247 -214 247 C-214 247.99 -214 248.98 -214 250 C-215.32 250 -216.64 250 -218 250 C-218 250.66 -218 251.32 -218 252 C-218.99 252 -219.98 252 -221 252 C-221 252.66 -221 253.32 -221 254 C-222.3125 255.625 -222.3125 255.625 -224 257 C-224.99 257 -225.98 257 -227 257 C-227 257.66 -227 258.32 -227 259 C-227.99 259 -228.98 259 -230 259 C-230.33 259.99 -230.66 260.98 -231 262 C-231.66 262 -232.32 262 -233 262 C-233 262.66 -233 263.32 -233 264 C-235.3125 266.625 -235.3125 266.625 -238 269 C-238.99 269 -239.98 269 -241 269 C-241 269.66 -241 270.32 -241 271 C-241.99 271 -242.98 271 -244 271 C-244 271.66 -244 272.32 -244 273 C-246 275 -246 275 -249 276 C-249 276.66 -249 277.32 -249 278 C-250.375 279.625 -250.375 279.625 -252 281 C-252.66 281 -253.32 281 -254 281 C-254 281.66 -254 282.32 -254 283 C-254.66 283 -255.32 283 -256 283 C-256 283.66 -256 284.32 -256 285 C-257.375 286.625 -257.375 286.625 -259 288 C-259.66 288 -260.32 288 -261 288 C-261 288.66 -261 289.32 -261 290 C-261.66 290 -262.32 290 -263 290 C-263.33 290.99 -263.66 291.98 -264 293 C-264.33 293.66 -264.66 294.32 -265 295 C-265.99 295 -266.98 295 -268 295 C-268 295.99 -268 296.98 -268 298 C-268.66 298 -269.32 298 -270 298 C-270.33 299.32 -270.66 300.64 -271 302 C-271.66 302 -272.32 302 -273 302 C-273 302.66 -273 303.32 -273 304 C-275 306 -275 306 -278 307 C-278 307.66 -278 308.32 -278 309 C-278.66 309 -279.32 309 -280 309 C-280.33 310.65 -280.66 312.3 -281 314 C-281.66 314 -282.32 314 -283 314 C-283 314.66 -283 315.32 -283 316 C-283.66 316 -284.32 316 -285 316 C-285 316.99 -285 317.98 -285 319 C-285.66 319 -286.32 319 -287 319 C-287 319.99 -287 320.98 -287 322 C-287.66 322.33 -288.32 322.66 -289 323 C-289.33 323.99 -289.66 324.98 -290 326 C-290.66 326 -291.32 326 -292 326 C-292 326.66 -292 327.32 -292 328 C-292.66 328 -293.32 328 -294 328 C-294.33 329.65 -294.66 331.3 -295 333 C-295.66 333 -296.32 333 -297 333 C-297 333.66 -297 334.32 -297 335 C-297.66 335 -298.32 335 -299 335 C-299 336.65 -299 338.3 -299 340 C-299.99 340 -300.98 340 -302 340 C-302.66 342.31 -303.32 344.62 -304 347 C-304.66 347 -305.32 347 -306 347 C-306 348.65 -306 350.3 -306 352 C-306.99 352 -307.98 352 -309 352 C-309.66 354.31 -310.32 356.62 -311 359 C-311.66 359 -312.32 359 -313 359 C-313 360.65 -313 362.3 -313 364 C-313.99 364 -314.98 364 -316 364 C-316.144375 364.7425 -316.28875 365.485 -316.4375 366.25 C-316.623125 367.1575 -316.80875 368.065 -317 369 C-317.144375 369.721875 -317.28875 370.44375 -317.4375 371.1875 C-318 373 -318 373 -320 375 C-320.33 375.99 -320.66 376.98 -321 378 C-321.66 378 -322.32 378 -323 378 C-323 379.65 -323 381.3 -323 383 C-323.66 383 -324.32 383 -325 383 C-325.33 384.65 -325.66 386.3 -326 388 C-326.66 388 -327.32 388 -328 388 C-328 389.32 -328 390.64 -328 392 C-328.66 392 -329.32 392 -330 392 C-330 393.65 -330 395.3 -330 397 C-330.66 397 -331.32 397 -332 397 C-332 398.98 -332 400.96 -332 403 C-332.99 403.33 -333.98 403.66 -335 404 C-335 405.65 -335 407.3 -335 409 C-335.66 409 -336.32 409 -337 409 C-337 411.31 -337 413.62 -337 416 C-337.99 416 -338.98 416 -340 416 C-339.67 417.98 -339.34 419.96 -339 422 C-339.99 421.67 -340.98 421.34 -342 421 C-342 423.31 -342 425.62 -342 428 C-342.66 428 -343.32 428 -344 428 C-344 430.31 -344 432.62 -344 435 C-344.99 435 -345.98 435 -347 435 C-347 437.31 -347 439.62 -347 442 C-347.66 442 -348.32 442 -349 442 C-349 444.31 -349 446.62 -349 449 C-349.66 449 -350.32 449 -351 449 C-351 451.97 -351 454.94 -351 458 C-351.66 458.33 -352.32 458.66 -353 459 C-353.40729228 461.32156597 -353.74438677 463.6568787 -354 466 C-354.66 466 -355.32 466 -356 466 C-356 468.97 -356 471.94 -356 475 C-356.66 475 -357.32 475 -358 475 C-358 477.97 -358 480.94 -358 484 C-358.99 484.33 -359.98 484.66 -361 485 C-360.98259766 485.95712891 -360.98259766 485.95712891 -360.96484375 486.93359375 C-360.95582031 487.75988281 -360.94679688 488.58617187 -360.9375 489.4375 C-360.92589844 490.26121094 -360.91429687 491.08492187 -360.90234375 491.93359375 C-361 494 -361 494 -362 495 C-362.23363881 496.84891946 -362.41303635 498.70488031 -362.5625 500.5625 C-362.64628906 501.57441406 -362.73007812 502.58632812 -362.81640625 503.62890625 C-362.87699219 504.41136719 -362.93757812 505.19382812 -363 506 C-363.66 506 -364.32 506 -365 506 C-365.06058594 506.85464844 -365.12117187 507.70929688 -365.18359375 508.58984375 C-365.26738281 509.69457031 -365.35117187 510.79929687 -365.4375 511.9375 C-365.55931641 513.59072266 -365.55931641 513.59072266 -365.68359375 515.27734375 C-366 518 -366 518 -367 519 C-367.20931897 521.16296273 -367.36797069 523.3309471 -367.5 525.5 C-367.88888889 531.88888889 -367.88888889 531.88888889 -369 533 C-369.23659614 536.42501072 -369.39673972 539.84280568 -369.51757812 543.2734375 C-369.60910491 545.18686533 -369.79739852 547.09512839 -370 549 C-370.66 549.33 -371.32 549.66 -372 550 C-372.33 555.94 -372.66 561.88 -373 568 C-373.66 568 -374.32 568 -375 568 C-375 575.92 -375 583.84 -375 592 C-375.66 592 -376.32 592 -377 592 C-377.03758423 593.55895996 -377.03758423 593.55895996 -377.07592773 595.14941406 C-377.17020926 599.01102703 -377.27037908 602.87246883 -377.37231445 606.73388672 C-377.41558489 608.40409334 -377.45726549 610.07434194 -377.49731445 611.74462891 C-377.55520851 614.14758955 -377.6188474 616.55034041 -377.68359375 618.953125 C-377.70030624 619.69806213 -377.71701874 620.44299927 -377.73423767 621.21051025 C-377.88682489 626.56897581 -377.88682489 626.56897581 -378.50466948 628.92201938 C-379.07510382 631.315071 -379.12748379 633.45438989 -379.13061053 635.91468215 C-379.13429124 636.91129577 -379.13797195 637.9079094 -379.14176419 638.93472344 C-379.14074153 640.02960939 -379.13971886 641.12449535 -379.1386652 642.25255966 C-379.14292853 644.00441693 -379.14292853 644.00441693 -379.14727798 645.79166526 C-379.15419083 649.04851138 -379.15662051 652.30532618 -379.1572054 655.56217849 C-379.15893153 659.0996056 -379.16641526 662.63702117 -379.17318195 666.17444158 C-379.18425159 672.37912008 -379.19161565 678.58379449 -379.19658089 684.78848076 C-379.2039807 694.01467565 -379.21706241 703.2408563 -379.23132664 712.46704282 C-379.25515751 727.98566163 -379.27435313 743.50428296 -379.29092598 759.02291107 C-379.30735519 774.3929148 -379.32583296 789.7629138 -379.34705925 805.13291168 C-379.34837686 806.08782965 -379.34969446 807.04274763 -379.351052 808.02660251 C-379.35775389 812.87595766 -379.3644925 817.72531276 -379.37124526 822.57466784 C-379.41903476 856.94121278 -379.46221218 891.30776213 -379.50268555 925.67431641 C-379.54202049 959.06527019 -379.58343938 992.45622032 -379.62768555 1025.84716797 C-379.62904808 1026.87604639 -379.63041061 1027.90492481 -379.63181442 1028.96498136 C-379.64549955 1039.29720548 -379.65922711 1049.62942954 -379.67298577 1059.96165356 C-379.70101388 1081.01042578 -379.72875875 1102.05919837 -379.7563324 1123.10797119 C-379.7576006 1124.0758039 -379.7588688 1125.04363661 -379.76017542 1126.04079758 C-379.84486105 1190.69385912 -379.92292291 1255.34692899 -380 1320 C-438.51852161 1324.1798944 -497.33238637 1321 -556 1321 C-556 896.95 -556 472.9 -556 36 C-501.55 36 -447.1 36 -391 36 C-390.67 113.88 -390.34 191.76 -390 272 C-390 194.45 -390 116.9 -390 37 C-389.67 37 -389.34 37 -389 37 C-389 114.22 -389 191.44 -389 271 C-388.34 271 -387.68 271 -387 271 C-387 269.35 -387 267.7 -387 266 C-386.34 265.67 -385.68 265.34 -385 265 C-385 264.01 -385 263.02 -385 262 C-384.01 262 -383.02 262 -382 262 C-382 260.35 -382 258.7 -382 257 C-381.34 257 -380.68 257 -380 257 C-380 255.35 -380 253.7 -380 252 C-379.01 252 -378.02 252 -377 252 C-377 250.35 -377 248.7 -377 247 C-376.34 247 -375.68 247 -375 247 C-375 245.68 -375 244.36 -375 243 C-374.34 243 -373.68 243 -373 243 C-373 241.35 -373 239.7 -373 238 C-372.01 238 -371.02 238 -370 238 C-369.855625 237.21625 -369.71125 236.4325 -369.5625 235.625 C-369 233 -369 233 -368 231 C-367.34 231 -366.68 231 -366 231 C-365.67 229.35 -365.34 227.7 -365 226 C-364.34 226 -363.68 226 -363 226 C-363 224.35 -363 222.7 -363 221 C-362.34 221 -361.68 221 -361 221 C-361 220.01 -361 219.02 -361 218 C-360.34 218 -359.68 218 -359 218 C-358.67 216.68 -358.34 215.36 -358 214 C-357.34 214 -356.68 214 -356 214 C-356 212.35 -356 210.7 -356 209 C-355.34 208.67 -354.68 208.34 -354 208 C-352.90833725 206.06669397 -352.90833725 206.06669397 -352 204 C-351.67 203.34 -351.34 202.68 -351 202 C-350.34 202 -349.68 202 -349 202 C-349 201.01 -349 200.02 -349 199 C-348.34 199 -347.68 199 -347 199 C-346.67 197.68 -346.34 196.36 -346 195 C-345.34 195 -344.68 195 -344 195 C-343.9175 194.21625 -343.835 193.4325 -343.75 192.625 C-343 190 -343 190 -340.9375 188.6875 C-340.298125 188.460625 -339.65875 188.23375 -339 188 C-339 187.01 -339 186.02 -339 185 C-338.34 185 -337.68 185 -337 185 C-337 183.68 -337 182.36 -337 181 C-335.625 179.25 -335.625 179.25 -334 178 C-333.34 178 -332.68 178 -332 178 C-331.34 175.69 -330.68 173.38 -330 171 C-329.01 171 -328.02 171 -327 171 C-327 170.34 -327 169.68 -327 169 C-326.34 169 -325.68 169 -325 169 C-325 168.01 -325 167.02 -325 166 C-324.34 166 -323.68 166 -323 166 C-322.67 164.68 -322.34 163.36 -322 162 C-321.34 162 -320.68 162 -320 162 C-320 161.01 -320 160.02 -320 159 C-319.34 159 -318.68 159 -318 159 C-318 158.34 -318 157.68 -318 157 C-316 155 -316 155 -313 154 C-311.83046584 151.57616923 -311.83046584 151.57616923 -311 149 C-310.67 148.34 -310.34 147.68 -310 147 C-309.34 147 -308.68 147 -308 147 C-308 146.34 -308 145.68 -308 145 C-307.34 145 -306.68 145 -306 145 C-306 144.34 -306 143.68 -306 143 C-304.625 141.375 -304.625 141.375 -303 140 C-302.34 140 -301.68 140 -301 140 C-301 139.34 -301 138.68 -301 138 C-300.34 138 -299.68 138 -299 138 C-299 137.01 -299 136.02 -299 135 C-298.34 135 -297.68 135 -297 135 C-297 134.34 -297 133.68 -297 133 C-296.01 133 -295.02 133 -294 133 C-294 132.34 -294 131.68 -294 131 C-293.34 131 -292.68 131 -292 131 C-292 130.01 -292 129.02 -292 128 C-291.34 128 -290.68 128 -290 128 C-290 127.34 -290 126.68 -290 126 C-289.01 126 -288.02 126 -287 126 C-286.34 124.35 -285.68 122.7 -285 121 C-284.01 121 -283.02 121 -282 121 C-282 120.34 -282 119.68 -282 119 C-281.34 119 -280.68 119 -280 119 C-280 118.01 -280 117.02 -280 116 C-279.01 116 -278.02 116 -277 116 C-277 115.34 -277 114.68 -277 114 C-276.34 114 -275.68 114 -275 114 C-275 113.34 -275 112.68 -275 112 C-273 110 -273 110 -270 109 C-270 108.34 -270 107.68 -270 107 C-267.75 104.375 -267.75 104.375 -265 102 C-263.68 102 -262.36 102 -261 102 C-261 101.34 -261 100.68 -261 100 C-259 98 -259 98 -256 97 C-256 96.34 -256 95.68 -256 95 C-255.01 95 -254.02 95 -253 95 C-253 94.34 -253 93.68 -253 93 C-251.75 91.375 -251.75 91.375 -250 90 C-248.68 90 -247.36 90 -246 90 C-246 89.34 -246 88.68 -246 88 C-242.53846154 85 -242.53846154 85 -240 85 C-240 84.34 -240 83.68 -240 83 C-239.01 83 -238.02 83 -237 83 C-237 82.34 -237 81.68 -237 81 C-236.01 81 -235.02 81 -234 81 C-234 80.01 -234 79.02 -234 78 C-232.68 78 -231.36 78 -230 78 C-230 77.34 -230 76.68 -230 76 C-229.01 76 -228.02 76 -227 76 C-227 75.34 -227 74.68 -227 74 C-225.515 73.505 -225.515 73.505 -224 73 C-223.67 72.34 -223.34 71.68 -223 71 C-221.68 71 -220.36 71 -219 71 C-219 70.34 -219 69.68 -219 69 C-211.57142857 64.57142857 -211.57142857 64.57142857 -208 64 C-208 63.34 -208 62.68 -208 62 C-206.02 61.01 -206.02 61.01 -204 60 C-204 59.67 -204 59.34 -204 59 C-202.35 59 -200.7 59 -199 59 C-199 58.34 -199 57.68 -199 57 C-197.68 57 -196.36 57 -195 57 C-195 56.34 -195 55.68 -195 55 C-193.02 54.01 -193.02 54.01 -191 53 C-191 52.67 -191 52.34 -191 52 C-189.35 52 -187.7 52 -186 52 C-186 51.34 -186 50.68 -186 50 C-185.360625 49.87625 -184.72125 49.7525 -184.0625 49.625 C-183.381875 49.41875 -182.70125 49.2125 -182 49 C-181.67 48.34 -181.34 47.68 -181 47 C-179.35 47 -177.7 47 -176 47 C-176 46.34 -176 45.68 -176 45 C-174.35 45 -172.7 45 -171 45 C-171 44.34 -171 43.68 -171 43 C-170.360625 42.87625 -169.72125 42.7525 -169.0625 42.625 C-168.381875 42.41875 -167.70125 42.2125 -167 42 C-166.67 41.34 -166.34 40.68 -166 40 C-164.35 40 -162.7 40 -161 40 C-161 39.34 -161 38.68 -161 38 C-159.02 38 -157.04 38 -155 38 C-155 37.34 -155 36.68 -155 36 C-153.02 35.67 -151.04 35.34 -149 35 C-149 34.34 -149 33.68 -149 33 C-147.02 33 -145.04 33 -143 33 C-143 32.34 -143 31.68 -143 31 C-141.02 30.67 -139.04 30.34 -137 30 C-137 29.34 -137 28.68 -137 28 C-134.69 28 -132.38 28 -130 28 C-130 27.34 -130 26.68 -130 26 C-127.69 26 -125.38 26 -123 26 C-123 25.34 -123 24.68 -123 24 C-120.69 23.67 -118.38 23.34 -116 23 C-116 22.34 -116 21.68 -116 21 C-113.03 21 -110.06 21 -107 21 C-107 20.34 -107 19.68 -107 19 C-104.94921875 18.77213542 -102.8984375 18.54427083 -100.84765625 18.31640625 C-98.98859771 18.18113386 -98.98859771 18.18113386 -98 17 C-96.845 16.855625 -95.69 16.71125 -94.5 16.5625 C-93.345 16.376875 -92.19 16.19125 -91 16 C-90.67 15.34 -90.34 14.68 -90 14 C-86.37 14 -82.74 14 -79 14 C-79 13.34 -79 12.68 -79 12 C-75.7 11.67 -72.4 11.34 -69 11 C-69 10.34 -69 9.68 -69 9 C-64.71 9 -60.42 9 -56 9 C-56 8.34 -56 7.68 -56 7 C-55.00097656 6.93941406 -54.00195312 6.87882813 -52.97265625 6.81640625 C-51.68230469 6.73261719 -50.39195312 6.64882813 -49.0625 6.5625 C-47.77472656 6.48128906 -46.48695313 6.40007813 -45.16015625 6.31640625 C-42.13976043 6.35080812 -42.13976043 6.35080812 -41 5 C-37.78980023 4.7637353 -34.58726128 4.60339698 -31.37109375 4.48242188 C-29.57586061 4.39075776 -27.78614053 4.20240144 -26 4 C-25.67 3.34 -25.34 2.68 -25 2 C-16.75 2 -8.5 2 0 2 C0 1.34 0 0.68 0 0 Z " fill="#D8D9D9" transform="translate(724,995)"/>
<path d="M0 0 C56.76 0 113.52 0 172 0 C172 424.05 172 848.1 172 1285 C115.24 1285 58.48 1285 0 1285 C0 860.95 0 436.9 0 0 Z " fill="#D8D9D9" transform="translate(929,1031)"/>
<path d="M0 0 C0.33 0.66 0.66 1.32 1 2 C3.32353985 2.42985694 3.32353985 2.42985694 6 2.5625 C10.90381679 2.90381679 10.90381679 2.90381679 12 4 C13.51469448 4.23192865 15.03754562 4.41215238 16.5625 4.5625 C17.38878906 4.64628906 18.21507812 4.73007812 19.06640625 4.81640625 C19.70449219 4.87699219 20.34257812 4.93757813 21 5 C21 5.66 21 6.32 21 7 C23.64 7 26.28 7 29 7 C29.33 7.66 29.66 8.32 30 9 C33.02934491 9.65772428 33.02934491 9.65772428 36 10 C36 10.66 36 11.32 36 12 C37.98 12 39.96 12 42 12 C42 12.66 42 13.32 42 14 C43.65 14 45.3 14 47 14 C47.33 14.66 47.66 15.32 48 16 C50.02463255 16.65213292 50.02463255 16.65213292 52 17 C52 17.66 52 18.32 52 19 C53.65 19 55.3 19 57 19 C57.33 19.66 57.66 20.32 58 21 C59.88263881 21.90343684 59.88263881 21.90343684 62.0625 22.625 C62.79597656 22.88539063 63.52945312 23.14578125 64.28515625 23.4140625 C64.85105469 23.60742188 65.41695313 23.80078125 66 24 C66 24.66 66 25.32 66 26 C66.598125 26.12375 67.19625 26.2475 67.8125 26.375 C70 27 70 27 73 29 C73 29.66 73 30.32 73 31 C73.53625 31.0825 74.0725 31.165 74.625 31.25 C77.87340691 32.27581271 80.28751859 33.96563894 83 36 C83 36.66 83 37.32 83 38 C83.99 38 84.98 38 86 38 C87.6875 39.375 87.6875 39.375 89 41 C89 41.66 89 42.32 89 43 C89.99 43 90.98 43 92 43 C92 43.66 92 44.32 92 45 C92.99 45 93.98 45 95 45 C95 45.99 95 46.98 95 48 C96.65 48.66 98.3 49.32 100 50 C100 50.99 100 51.98 100 53 C101.65 53.66 103.3 54.32 105 55 C105 55.66 105 56.32 105 57 C105.66 57 106.32 57 107 57 C107 57.99 107 58.98 107 60 C108.32 60.66 109.64 61.32 111 62 C111 62.66 111 63.32 111 64 C111.66 64.33 112.32 64.66 113 65 C114.125 67.0625 114.125 67.0625 115 69 C115.66 69 116.32 69 117 69 C117 69.99 117 70.98 117 72 C117.66 72 118.32 72 119 72 C119.33 73.32 119.66 74.64 120 76 C120.66 76 121.32 76 122 76 C122 76.99 122 77.98 122 79 C122.66 79 123.32 79 124 79 C124.12375 79.639375 124.2475 80.27875 124.375 80.9375 C124.684375 81.9584375 124.684375 81.9584375 125 83 C125.66 83.33 126.32 83.66 127 84 C129 86 129 86 129.9375 89.5625 C130.288125 90.696875 130.63875 91.83125 131 93 C131.99 93.33 132.98 93.66 134 94 C134 95.32 134 96.64 134 98 C134.66 98 135.32 98 136 98 C136.99 101.63 137.98 105.26 139 109 C139.66 109 140.32 109 141 109 C141 110.65 141 112.3 141 114 C141.66 114 142.32 114 143 114 C143.33 116.31 143.66 118.62 144 121 C144.66 121 145.32 121 146 121 C146 123.64 146 126.28 146 129 C146.66 129 147.32 129 148 129 C149.53332291 135.33773468 150.48446121 141.50149789 151 148 C151.66 148 152.32 148 153 148 C153.02505615 148.72179443 153.0501123 149.44358887 153.07592773 150.18725586 C153.19151302 153.437535 153.31440774 156.68749688 153.4375 159.9375 C153.47681641 161.07380859 153.51613281 162.21011719 153.55664062 163.38085938 C153.59853516 164.46044922 153.64042969 165.54003906 153.68359375 166.65234375 C153.72025146 167.65257568 153.75690918 168.65280762 153.79467773 169.68334961 C153.74671841 171.96069188 153.74671841 171.96069188 155 173 C155.09873816 174.99799572 155.12971799 176.99957158 155.125 179 C155.12757813 180.093125 155.13015625 181.18625 155.1328125 182.3125 C155 185 155 185 154 186 C153.84259395 187.70563778 153.74906608 189.41727244 153.68359375 191.12890625 C153.64169922 192.16337891 153.59980469 193.19785156 153.55664062 194.26367188 C153.51732422 195.35228516 153.47800781 196.44089844 153.4375 197.5625 C153.39431641 198.65498047 153.35113281 199.74746094 153.30664062 200.87304688 C153.20017932 203.58189564 153.09816484 206.29083992 153 209 C152.34 209 151.68 209 151 209 C150.67 212.96 150.34 216.92 150 221 C149.34 221 148.68 221 148 221 C148.03480469 221.556875 148.06960938 222.11375 148.10546875 222.6875 C148.313323 228.54701038 147.34325807 232.6300336 145 238 C144.34 238 143.68 238 143 238 C143 239.65 143 241.3 143 243 C142.34 243 141.68 243 141 243 C141 245.31 141 247.62 141 250 C140.01 250 139.02 250 138 250 C138.33 250.99 138.66 251.98 139 253 C138.67 253.66 138.34 254.32 138 255 C137.34 255 136.68 255 136 255 C136 256.32 136 257.64 136 259 C135.34 259 134.68 259 134 259 C134 260.65 134 262.3 134 264 C133.01 264 132.02 264 131 264 C131 265.65 131 267.3 131 269 C130.34 269 129.68 269 129 269 C129 269.99 129 270.98 129 272 C128.34 272 127.68 272 127 272 C126.67 273.32 126.34 274.64 126 276 C125.34 276 124.68 276 124 276 C123.855625 276.78375 123.71125 277.5675 123.5625 278.375 C123 281 123 281 122 283 C121.01 283 120.02 283 119 283 C119 283.99 119 284.98 119 286 C118.34 286 117.68 286 117 286 C116.87625 286.598125 116.7525 287.19625 116.625 287.8125 C116 290 116 290 114 293 C113.34 293 112.68 293 112 293 C112 293.66 112 294.32 112 295 C111.34 295 110.68 295 110 295 C110 295.66 110 296.32 110 297 C108 299 108 299 105 300 C105 300.66 105 301.32 105 302 C104.34 302 103.68 302 103 302 C103 302.99 103 303.98 103 305 C102.34 305.66 101.68 306.32 101 307 C100.01 307 99.02 307 98 307 C98 307.66 98 308.32 98 309 C96 311 96 311 93 312 C93 312.66 93 313.32 93 314 C90.75 316.625 90.75 316.625 88 319 C86.68 319 85.36 319 84 319 C84 319.66 84 320.32 84 321 C82.6875 322.625 82.6875 322.625 81 324 C80.01 324 79.02 324 78 324 C78 324.66 78 325.32 78 326 C77.030625 326.45375 76.06125 326.9075 75.0625 327.375 C71.92920418 328.65786221 71.92920418 328.65786221 71 331 C69.68 331 68.36 331 67 331 C67 331.66 67 332.32 67 333 C64.09451118 335.04169485 62.59857954 336 59 336 C59 336.66 59 337.32 59 338 C57.35 338 55.7 338 54 338 C54 338.66 54 339.32 54 340 C52.68 340.66 51.36 341.32 50 342 C50 342.33 50 342.66 50 343 C48.02 343 46.04 343 44 343 C44 343.66 44 344.32 44 345 C43.21753906 345.19335938 42.43507813 345.38671875 41.62890625 345.5859375 C40.11103516 345.97652344 40.11103516 345.97652344 38.5625 346.375 C37.04849609 346.75785156 37.04849609 346.75785156 35.50390625 347.1484375 C32.84429676 347.72573954 32.84429676 347.72573954 32 350 C29.67284 350.37400786 27.33882138 350.70764733 25 351 C24.67 351.33 24.34 351.66 24 352 C22.845 352.144375 21.69 352.28875 20.5 352.4375 C19.345 352.623125 18.19 352.80875 17 353 C16.67 353.66 16.34 354.32 16 355 C12.37 355 8.74 355 5 355 C5 355.66 5 356.32 5 357 C3.79601562 357.06058594 2.59203125 357.12117188 1.3515625 357.18359375 C-0.22397077 357.26799732 -1.79949096 357.35264541 -3.375 357.4375 C-4.1690625 357.47681641 -4.963125 357.51613281 -5.78125 357.55664062 C-10.02601221 357.68893404 -10.02601221 357.68893404 -14 359 C-16.23919154 359.09771688 -18.4813345 359.13077374 -20.72265625 359.1328125 C-21.38333603 359.13376923 -22.04401581 359.13472595 -22.72471619 359.13571167 C-24.12092179 359.13639216 -25.51713056 359.134547 -26.91333008 359.13037109 C-29.05752614 359.12501243 -31.20151353 359.13032479 -33.34570312 359.13671875 C-34.7005213 359.13605811 -36.05533934 359.13477725 -37.41015625 359.1328125 C-38.64902588 359.13168457 -39.88789551 359.13055664 -41.16430664 359.12939453 C-44 359 -44 359 -45 358 C-47.85877909 357.76298761 -50.69883297 357.57780818 -53.5625 357.4375 C-54.36880859 357.39431641 -55.17511719 357.35113281 -56.00585938 357.30664062 C-58.00368805 357.20024738 -60.0018207 357.09959112 -62 357 C-62 356.34 -62 355.68 -62 355 C-65.63 355 -69.26 355 -73 355 C-73.33 354.34 -73.66 353.68 -74 353 C-75.89533342 352.53476937 -75.89533342 352.53476937 -78.0625 352.375 C-79.361875 352.25125 -80.66125 352.1275 -82 352 C-82 351.34 -82 350.68 -82 350 C-84.31 350 -86.62 350 -89 350 C-89.33 349.34 -89.66 348.68 -90 348 C-92.57437581 347.08719862 -92.57437581 347.08719862 -95.5625 346.375 C-97.08037109 345.98441406 -97.08037109 345.98441406 -98.62890625 345.5859375 C-99.41136719 345.39257812 -100.19382812 345.19921875 -101 345 C-101 344.34 -101 343.68 -101 343 C-102.98 343 -104.96 343 -107 343 C-107 342.34 -107 341.68 -107 341 C-111.455 339.515 -111.455 339.515 -116 338 C-116 337.34 -116 336.68 -116 336 C-116.57363281 335.87496094 -117.14726562 335.74992187 -117.73828125 335.62109375 C-120.05826154 334.98400072 -122.03541386 334.13248654 -124.1875 333.0625 C-124.88230469 332.72347656 -125.57710938 332.38445312 -126.29296875 332.03515625 C-128 331 -128 331 -129 329 C-129.99 328.67 -130.98 328.34 -132 328 C-132 327.34 -132 326.68 -132 326 C-132.99 326 -133.98 326 -135 326 C-135 325.34 -135 324.68 -135 324 C-135.598125 323.87625 -136.19625 323.7525 -136.8125 323.625 C-139 323 -139 323 -142 321 C-142 320.34 -142 319.68 -142 319 C-142.99 318.67 -143.98 318.34 -145 318 C-147.6875 316.0625 -147.6875 316.0625 -150 314 C-150 313.34 -150 312.68 -150 312 C-150.99 312 -151.98 312 -153 312 C-154.6875 310.625 -154.6875 310.625 -156 309 C-156 308.34 -156 307.68 -156 307 C-156.66 307 -157.32 307 -158 307 C-158 306.34 -158 305.68 -158 305 C-158.99 305 -159.98 305 -161 305 C-161 304.01 -161 303.02 -161 302 C-161.66 302 -162.32 302 -163 302 C-163 301.34 -163 300.68 -163 300 C-163.66 300 -164.32 300 -165 300 C-169 295.52941176 -169 295.52941176 -169 293 C-169.66 293 -170.32 293 -171 293 C-171 292.01 -171 291.02 -171 290 C-171.66 290 -172.32 290 -173 290 C-173 289.34 -173 288.68 -173 288 C-173.66 288 -174.32 288 -175 288 C-175.33 286.68 -175.66 285.36 -176 284 C-176.66 284 -177.32 284 -178 284 C-178 283.01 -178 282.02 -178 281 C-178.66 281 -179.32 281 -180 281 C-180 280.01 -180 279.02 -180 278 C-180.99 277.67 -181.98 277.34 -183 277 C-183 276.01 -183 275.02 -183 274 C-183.66 274 -184.32 274 -185 274 C-185.268125 272.865625 -185.53625 271.73125 -185.8125 270.5625 C-186.204375 269.386875 -186.59625 268.21125 -187 267 C-187.99 266.67 -188.98 266.34 -190 266 C-190 264.68 -190 263.36 -190 262 C-190.66 262 -191.32 262 -192 262 C-192 260.35 -192 258.7 -192 257 C-192.66 257 -193.32 257 -194 257 C-194.12375 256.360625 -194.2475 255.72125 -194.375 255.0625 C-194.58125 254.381875 -194.7875 253.70125 -195 253 C-195.66 252.67 -196.32 252.34 -197 252 C-198.72718916 247.87393702 -199.2120464 244.45297431 -199 240 C-199.99 240 -200.98 240 -202 240 C-202 237.69 -202 235.38 -202 233 C-202.66 233 -203.32 233 -204 233 C-204 230.69 -204 228.38 -204 226 C-204.66 226 -205.32 226 -206 226 C-206.04898438 225.37351562 -206.09796875 224.74703125 -206.1484375 224.1015625 C-206.26058594 222.87566406 -206.26058594 222.87566406 -206.375 221.625 C-206.44460937 220.81289063 -206.51421875 220.00078125 -206.5859375 219.1640625 C-206.82892588 216.79665809 -206.82892588 216.79665809 -209 215 C-211.00017262 204.20645823 -210.15247572 192.52693566 -210.13037109 181.59790039 C-210.12500573 178.44086926 -210.13034636 175.28397998 -210.13671875 172.12695312 C-210.1424919 152.5992742 -210.1424919 152.5992742 -209 143 C-208.34 143 -207.68 143 -207 143 C-206.67 139.7 -206.34 136.4 -206 133 C-205.34 133 -204.68 133 -204 133 C-204 130.03 -204 127.06 -204 124 C-203.34 124 -202.68 124 -202 124 C-202 122.02 -202 120.04 -202 118 C-201.01 117.505 -201.01 117.505 -200 117 C-199.34444881 114.47266765 -199.34444881 114.47266765 -199 112 C-198.34 112 -197.68 112 -197 112 C-197 110.35 -197 108.7 -197 107 C-196.34 107 -195.68 107 -195 107 C-195 105.02 -195 103.04 -195 101 C-194.01 100.505 -194.01 100.505 -193 100 C-191.94647157 97.69034152 -190.94280904 95.3570226 -190 93 C-189.34 93 -188.68 93 -188 93 C-187.67 91.35 -187.34 89.7 -187 88 C-186.34 88 -185.68 88 -185 88 C-184.67 86.35 -184.34 84.7 -184 83 C-183.34 83 -182.68 83 -182 83 C-182 82.34 -182 81.68 -182 81 C-181.34 81 -180.68 81 -180 81 C-180 79.35 -180 77.7 -180 76 C-179.34 76 -178.68 76 -178 76 C-178 75.34 -178 74.68 -178 74 C-177.01 74 -176.02 74 -175 74 C-174.9175 73.278125 -174.835 72.55625 -174.75 71.8125 C-173.84286169 68.41073132 -172.39989121 66.54533916 -170 64 C-169.34 64 -168.68 64 -168 64 C-168 63.34 -168 62.68 -168 62 C-167.34 62 -166.68 62 -166 62 C-166 61.34 -166 60.68 -166 60 C-164 58 -164 58 -161 57 C-161 56.34 -161 55.68 -161 55 C-160.34 55 -159.68 55 -159 55 C-158.67 54.01 -158.34 53.02 -158 52 C-157.505 51.01 -157.505 51.01 -157 50 C-156.01 50 -155.02 50 -154 50 C-154 49.34 -154 48.68 -154 48 C-152 46 -152 46 -149 45 C-149 44.34 -149 43.68 -149 43 C-146.15222057 40.38953552 -143.86933162 38.57323431 -140 38 C-140 37.34 -140 36.68 -140 36 C-139.01 36 -138.02 36 -137 36 C-136.67 35.01 -136.34 34.02 -136 33 C-135.34 33 -134.68 33 -134 33 C-134 32.34 -134 31.68 -134 31 C-132.68 31 -131.36 31 -130 31 C-130 30.34 -130 29.68 -130 29 C-127.38058783 27.25372522 -125.96175123 26.61277612 -123 26 C-123 25.34 -123 24.68 -123 24 C-120.03 23.01 -117.06 22.02 -114 21 C-114 20.34 -114 19.68 -114 19 C-112.35 19 -110.7 19 -109 19 C-109 18.34 -109 17.68 -109 17 C-108.360625 16.87625 -107.72125 16.7525 -107.0625 16.625 C-106.381875 16.41875 -105.70125 16.2125 -105 16 C-104.67 15.34 -104.34 14.68 -104 14 C-102.35 14 -100.7 14 -99 14 C-99 13.34 -99 12.68 -99 12 C-97.02 12 -95.04 12 -93 12 C-93 11.34 -93 10.68 -93 10 C-90.03 9.505 -90.03 9.505 -87 9 C-87 8.34 -87 7.68 -87 7 C-84.03 7 -81.06 7 -78 7 C-78 6.34 -78 5.68 -78 5 C-75.03 5 -72.06 5 -69 5 C-69 4.34 -69 3.68 -69 3 C-67.95199219 2.92652344 -67.95199219 2.92652344 -66.8828125 2.8515625 C-65.97273437 2.77679688 -65.06265625 2.70203125 -64.125 2.625 C-63.22007812 2.55539062 -62.31515625 2.48578125 -61.3828125 2.4140625 C-58.82058097 2.20431868 -58.82058097 2.20431868 -57 0 C-54.98583984 -0.3347168 -54.98583984 -0.3347168 -52.4609375 -0.44921875 C-51.50243896 -0.49312744 -50.54394043 -0.53703613 -49.55639648 -0.58227539 C-48.50653564 -0.61699951 -47.4566748 -0.65172363 -46.375 -0.6875 C-45.29226807 -0.7280249 -44.20953613 -0.7685498 -43.09399414 -0.81030273 C-28.72252457 -1.2396788 -14.35818164 -0.6084326 0 0 Z " fill="#F6B411" transform="translate(296,462)"/>
<path d="M0 0 C0.33 0.66 0.66 1.32 1 2 C3.32353985 2.42985694 3.32353985 2.42985694 6 2.5625 C10.90381679 2.90381679 10.90381679 2.90381679 12 4 C13.51469448 4.23192865 15.03754562 4.41215238 16.5625 4.5625 C17.38878906 4.64628906 18.21507812 4.73007812 19.06640625 4.81640625 C19.70449219 4.87699219 20.34257813 4.93757813 21 5 C21 5.66 21 6.32 21 7 C23.64 7 26.28 7 29 7 C29.33 7.66 29.66 8.32 30 9 C32.80478195 9.91485573 32.80478195 9.91485573 36.0625 10.625 C37.16722656 10.88539063 38.27195312 11.14578125 39.41015625 11.4140625 C40.26480469 11.60742188 41.11945313 11.80078125 42 12 C42 12.66 42 13.32 42 14 C43.65 14 45.3 14 47 14 C47 14.99 47 15.98 47 17 C48.65 17 50.3 17 52 17 C52 17.66 52 18.32 52 19 C53.65 19 55.3 19 57 19 C57.33 19.66 57.66 20.32 58 21 C58.99 21.33 59.98 21.66 61 22 C61 22.66 61 23.32 61 24 C62.32 24 63.64 24 65 24 C65 24.66 65 25.32 65 26 C66.32 26 67.64 26 69 26 C69.33 26.66 69.66 27.32 70 28 C70.99 28.33 71.98 28.66 73 29 C73 29.66 73 30.32 73 31 C73.99 31 74.98 31 76 31 C76 31.66 76 32.32 76 33 C77.32 33.33 78.64 33.66 80 34 C80 34.66 80 35.32 80 36 C80.99 36 81.98 36 83 36 C83 36.66 83 37.32 83 38 C83.99 38 84.98 38 86 38 C87.6875 39.375 87.6875 39.375 89 41 C89 41.66 89 42.32 89 43 C89.99 43 90.98 43 92 43 C92 43.66 92 44.32 92 45 C92.99 45.33 93.98 45.66 95 46 C96.1875 48.0625 96.1875 48.0625 97 50 C97.66 50 98.32 50 99 50 C100.625 51.375 100.625 51.375 102 53 C102 53.66 102 54.32 102 55 C102.66 55 103.32 55 104 55 C104 55.66 104 56.32 104 57 C104.66 57 105.32 57 106 57 C107.625 58.375 107.625 58.375 109 60 C109 60.66 109 61.32 109 62 C109.66 62 110.32 62 111 62 C111 62.66 111 63.32 111 64 C111.66 64 112.32 64 113 64 C113.33 65.65 113.66 67.3 114 69 C114.66 69 115.32 69 116 69 C116.66 70.65 117.32 72.3 118 74 C118.99 74 119.98 74 121 74 C122.4606285 76.64738916 123 77.89448334 123 81 C123.66 81 124.32 81 125 81 C125.33 82.32 125.66 83.64 126 85 C126.66 85 127.32 85 128 85 C128 85.99 128 86.98 128 88 C128.66 88 129.32 88 130 88 C130 89.65 130 91.3 130 93 C130.99 93 131.98 93 133 93 C133 94.65 133 96.3 133 98 C133.66 98 134.32 98 135 98 C135 99.32 135 100.64 135 102 C135.66 102 136.32 102 137 102 C137.33 103.65 137.66 105.3 138 107 C138.66 107 139.32 107 140 107 C140 108.65 140 110.3 140 112 C140.66 112 141.32 112 142 112 C142 114.31 142 116.62 142 119 C142.99 119 143.98 119 145 119 C145 121.31 145 123.62 145 126 C145.66 126 146.32 126 147 126 C147.144375 127.134375 147.28875 128.26875 147.4375 129.4375 C147.61171478 132.80777201 147.61171478 132.80777201 149 134 C149.23363881 135.84891946 149.41303635 137.70488031 149.5625 139.5625 C149.64628906 140.57441406 149.73007813 141.58632813 149.81640625 142.62890625 C149.87699219 143.41136719 149.93757813 144.19382812 150 145 C150.66 145 151.32 145 152 145 C153.16273121 155.16264154 153.15311064 165.2925104 153.13037109 175.5078125 C153.12502429 178.36203352 153.13033677 181.21609632 153.13671875 184.0703125 C153.14831077 207.27300662 153.14831077 207.27300662 152 214 C151.34 214.33 150.68 214.66 150 215 C149.53348793 217.12576782 149.53348793 217.12576782 149.375 219.5625 C149.30023437 220.38878906 149.22546875 221.21507812 149.1484375 222.06640625 C149.09945313 222.70449219 149.05046875 223.34257813 149 224 C148.34 224 147.68 224 147 224 C147 226.97 147 229.94 147 233 C146.34 233 145.68 233 145 233 C145 235.31 145 237.62 145 240 C144.01 240 143.02 240 142 240 C142 241.65 142 243.3 142 245 C141.34 245 140.68 245 140 245 C140 247.31 140 249.62 140 252 C139.01 252 138.02 252 137 252 C137.33 253.32 137.66 254.64 138 256 C137.01 256.33 136.02 256.66 135 257 C135 258.65 135 260.3 135 262 C134.34 262 133.68 262 133 262 C133 263.32 133 264.64 133 266 C131.625 267.75 131.625 267.75 130 269 C129.34 269 128.68 269 128 269 C128 270.65 128 272.3 128 274 C127.360625 274.226875 126.72125 274.45375 126.0625 274.6875 C123.72806339 275.85250896 123.72806339 275.85250896 123.25 278.625 C123.1675 279.40875 123.085 280.1925 123 281 C122.34 281 121.68 281 121 281 C121 281.66 121 282.32 121 283 C120.34 283 119.68 283 119 283 C118.67 284.65 118.34 286.3 118 288 C117.34 288 116.68 288 116 288 C116 288.66 116 289.32 116 290 C114 292 114 292 111 293 C111 293.66 111 294.32 111 295 C110.34 295 109.68 295 109 295 C108.938125 295.721875 108.87625 296.44375 108.8125 297.1875 C107.7446249 300.88399074 105.89180184 302.53138868 103 305 C102.34 305 101.68 305 101 305 C101 305.66 101 306.32 101 307 C98.6875 309.625 98.6875 309.625 96 312 C95.01 312 94.02 312 93 312 C93 312.66 93 313.32 93 314 C92.01 314 91.02 314 90 314 C90 314.66 90 315.32 90 316 C88.6875 317.625 88.6875 317.625 87 319 C86.01 319 85.02 319 84 319 C84 319.66 84 320.32 84 321 C82.6875 322.625 82.6875 322.625 81 324 C80.01 324 79.02 324 78 324 C78 324.66 78 325.32 78 326 C75.35261084 327.4606285 74.10551666 328 71 328 C71 328.99 71 329.98 71 331 C69.68 331 68.36 331 67 331 C67 331.66 67 332.32 67 333 C65.68 333 64.36 333 63 333 C62.67 333.99 62.34 334.98 62 336 C61.01 336 60.02 336 59 336 C59 336.66 59 337.32 59 338 C57.35 338 55.7 338 54 338 C54 338.66 54 339.32 54 340 C52.68 340.66 51.36 341.32 50 342 C50 342.33 50 342.66 50 343 C48.02 343 46.04 343 44 343 C44 343.66 44 344.32 44 345 C42.02 345 40.04 345 38 345 C38 345.66 38 346.32 38 347 C36.02 347.66 34.04 348.32 32 349 C32 349.33 32 349.66 32 350 C29.36 350 26.72 350 24 350 C24 350.66 24 351.32 24 352 C21.36 352 18.72 352 16 352 C15.67 352.99 15.34 353.98 15 355 C11.7 355.33 8.4 355.66 5 356 C5 356.33 5 356.66 5 357 C3.78441406 357.06058594 2.56882812 357.12117188 1.31640625 357.18359375 C-0.26824228 357.26798332 -1.85287702 357.3526321 -3.4375 357.4375 C-4.23994141 357.47681641 -5.04238281 357.51613281 -5.86914062 357.55664062 C-9.75239561 357.4054296 -9.75239561 357.4054296 -13 359 C-15.27947792 359.1002093 -17.56207135 359.13081303 -19.84375 359.1328125 C-20.52804077 359.13376923 -21.21233154 359.13472595 -21.9173584 359.13571167 C-23.36661877 359.1363933 -24.81588218 359.13454023 -26.26513672 359.13037109 C-28.49062928 359.12502252 -30.71592001 359.1303166 -32.94140625 359.13671875 C-34.34635461 359.13605797 -35.75130285 359.1347768 -37.15625 359.1328125 C-38.44337891 359.13168457 -39.73050781 359.13055664 -41.05664062 359.12939453 C-44 359 -44 359 -45 358 C-47.85877909 357.76298761 -50.69883297 357.57780818 -53.5625 357.4375 C-54.36880859 357.39431641 -55.17511719 357.35113281 -56.00585938 357.30664062 C-58.00368805 357.20024738 -60.0018207 357.09959112 -62 357 C-62 356.34 -62 355.68 -62 355 C-65.63 355 -69.26 355 -73 355 C-73.33 354.34 -73.66 353.68 -74 353 C-75.89533342 352.53476937 -75.89533342 352.53476937 -78.0625 352.375 C-79.361875 352.25125 -80.66125 352.1275 -82 352 C-82 351.34 -82 350.68 -82 350 C-84.64 350 -87.28 350 -90 350 C-90.33 349.34 -90.66 348.68 -91 348 C-93.52733235 347.34444881 -93.52733235 347.34444881 -96 347 C-96 346.34 -96 345.68 -96 345 C-97.98 345 -99.96 345 -102 345 C-102 344.67 -102 344.34 -102 344 C-103.65 343.67 -105.3 343.34 -107 343 C-107 342.01 -107 341.02 -107 340 C-108.65 340 -110.3 340 -112 340 C-112 339.34 -112 338.68 -112 338 C-113.32 338 -114.64 338 -116 338 C-116 337.34 -116 336.68 -116 336 C-116.5775 335.87625 -117.155 335.7525 -117.75 335.625 C-120.02335767 334.99351176 -121.9253529 334.11141809 -124 333 C-124 332.34 -124 331.68 -124 331 C-125.65 331 -127.3 331 -129 331 C-129 330.34 -129 329.68 -129 329 C-129.99 328.67 -130.98 328.34 -132 328 C-132 327.34 -132 326.68 -132 326 C-132.99 326 -133.98 326 -135 326 C-135 325.34 -135 324.68 -135 324 C-135.598125 323.87625 -136.19625 323.7525 -136.8125 323.625 C-139 323 -139 323 -142 321 C-142 320.34 -142 319.68 -142 319 C-142.99 319 -143.98 319 -145 319 C-147.6875 316.625 -147.6875 316.625 -150 314 C-150 313.34 -150 312.68 -150 312 C-150.99 312 -151.98 312 -153 312 C-153 311.01 -153 310.02 -153 309 C-153.66 309 -154.32 309 -155 309 C-155 308.34 -155 307.68 -155 307 C-155.99 307 -156.98 307 -158 307 C-158 306.34 -158 305.68 -158 305 C-158.66 305 -159.32 305 -160 305 C-160.66 303.35 -161.32 301.7 -162 300 C-162.99 300 -163.98 300 -165 300 C-165 299.01 -165 298.02 -165 297 C-165.66 297 -166.32 297 -167 297 C-167 296.34 -167 295.68 -167 295 C-167.66 295 -168.32 295 -169 295 C-169 294.34 -169 293.68 -169 293 C-169.66 293 -170.32 293 -171 293 C-174.01704885 289.8000997 -175.49890042 287.38462134 -176 283 C-176.99 283 -177.98 283 -179 283 C-179 282.34 -179 281.68 -179 281 C-179.66 281 -180.32 281 -181 281 C-181 279.35 -181 277.7 -181 276 C-181.66 276 -182.32 276 -183 276 C-183 275.34 -183 274.68 -183 274 C-183.99 273.67 -184.98 273.34 -186 273 C-186 271.68 -186 270.36 -186 269 C-186.66 269 -187.32 269 -188 269 C-188.12375 268.360625 -188.2475 267.72125 -188.375 267.0625 C-188.58125 266.381875 -188.7875 265.70125 -189 265 C-189.66 264.67 -190.32 264.34 -191 264 C-191 262.35 -191 260.7 -191 259 C-191.66 259 -192.32 259 -193 259 C-193 257.68 -193 256.36 -193 255 C-193.66 255 -194.32 255 -195 255 C-195.12375 254.360625 -195.2475 253.72125 -195.375 253.0625 C-195.58125 252.381875 -195.7875 251.70125 -196 251 C-196.66 250.67 -197.32 250.34 -198 250 C-198 248.35 -198 246.7 -198 245 C-198.66 245 -199.32 245 -200 245 C-200 242.69 -200 240.38 -200 238 C-200.99 238 -201.98 238 -203 238 C-203 235.69 -203 233.38 -203 231 C-203.66 231 -204.32 231 -205 231 C-205 227.7 -205 224.4 -205 221 C-205.66 221 -206.32 221 -207 221 C-207.04898438 220.36191406 -207.09796875 219.72382812 -207.1484375 219.06640625 C-207.22320313 218.24011719 -207.29796875 217.41382813 -207.375 216.5625 C-207.44460938 215.73878906 -207.51421875 214.91507813 -207.5859375 214.06640625 C-207.72257813 213.38449219 -207.85921875 212.70257812 -208 212 C-208.66 211.67 -209.32 211.34 -210 211 C-210 204.07 -210 197.14 -210 190 C-210.66 190 -211.32 190 -212 190 C-212.02895225 186.70835171 -212.0467823 183.41673601 -212.0625 180.125 C-212.07087891 179.18785156 -212.07925781 178.25070312 -212.08789062 177.28515625 C-212.09111328 176.38925781 -212.09433594 175.49335937 -212.09765625 174.5703125 C-212.10289307 173.74289551 -212.10812988 172.91547852 -212.11352539 172.06298828 C-212 170 -212 170 -211 168 C-210.84876169 166.4804236 -210.75118307 164.95527498 -210.68359375 163.4296875 C-210.64169922 162.53378906 -210.59980469 161.63789062 -210.55664062 160.71484375 C-210.51732422 159.77769531 -210.47800781 158.84054687 -210.4375 157.875 C-210.39431641 156.93011719 -210.35113281 155.98523438 -210.30664062 155.01171875 C-210.20040928 152.67462908 -210.09836824 150.3374317 -210 148 C-209.34 148 -208.68 148 -208 148 C-207.67 144.04 -207.34 140.08 -207 136 C-206.34 136 -205.68 136 -205 136 C-205 133.69 -205 131.38 -205 129 C-204.34 129 -203.68 129 -203 129 C-203 126.03 -203 123.06 -203 120 C-202.01 119.505 -202.01 119.505 -201 119 C-200.34444881 116.47266765 -200.34444881 116.47266765 -200 114 C-199.34 114 -198.68 114 -198 114 C-198 112.02 -198 110.04 -198 108 C-196.515 107.505 -196.515 107.505 -195 107 C-195.33 106.01 -195.66 105.02 -196 104 C-195.01 103.01 -195.01 103.01 -194 102 C-193.3574765 99.93125966 -193.3574765 99.93125966 -193 98 C-192.34 98 -191.68 98 -191 98 C-191 96.35 -191 94.7 -191 93 C-190.01 93 -189.02 93 -188 93 C-187.855625 92.21625 -187.71125 91.4325 -187.5625 90.625 C-187 88 -187 88 -186 86 C-185.34 86 -184.68 86 -184 86 C-183.67 84.35 -183.34 82.7 -183 81 C-182.34 81 -181.68 81 -181 81 C-181 80.34 -181 79.68 -181 79 C-180.34 79 -179.68 79 -179 79 C-178.67 77.35 -178.34 75.7 -178 74 C-177.34 74 -176.68 74 -176 74 C-176 73.34 -176 72.68 -176 72 C-175.34 72 -174.68 72 -174 72 C-174 71.01 -174 70.02 -174 69 C-173.34 69 -172.68 69 -172 69 C-172 68.01 -172 67.02 -172 66 C-171.34 66 -170.68 66 -170 66 C-169.938125 65.38125 -169.87625 64.7625 -169.8125 64.125 C-169 62 -169 62 -166.4375 60.75 C-165.633125 60.5025 -164.82875 60.255 -164 60 C-164 59.01 -164 58.02 -164 57 C-163.34 57 -162.68 57 -162 57 C-162 56.34 -162 55.68 -162 55 C-159.625 52.375 -159.625 52.375 -157 50 C-156.34 50 -155.68 50 -155 50 C-155 49.34 -155 48.68 -155 48 C-154.01 48 -153.02 48 -152 48 C-152 47.01 -152 46.02 -152 45 C-151.01 45 -150.02 45 -149 45 C-149 44.34 -149 43.68 -149 43 C-147.34467377 41.98133771 -145.67739862 40.98189187 -144 40 C-143.505 39.01 -143.505 39.01 -143 38 C-142.01 38 -141.02 38 -140 38 C-140 37.34 -140 36.68 -140 36 C-136.53846154 33 -136.53846154 33 -134 33 C-134 32.34 -134 31.68 -134 31 C-131.69 30.01 -129.38 29.02 -127 28 C-127 27.34 -127 26.68 -127 26 C-125.68 26 -124.36 26 -123 26 C-123 25.34 -123 24.68 -123 24 C-121.68 24 -120.36 24 -119 24 C-119 23.34 -119 22.68 -119 22 C-117.68 21.34 -116.36 20.68 -115 20 C-115 19.67 -115 19.34 -115 19 C-113.35 19 -111.7 19 -110 19 C-110 18.34 -110 17.68 -110 17 C-109.195625 16.87625 -108.39125 16.7525 -107.5625 16.625 C-106.716875 16.41875 -105.87125 16.2125 -105 16 C-104.67 15.34 -104.34 14.68 -104 14 C-102.35 14 -100.7 14 -99 14 C-99 13.34 -99 12.68 -99 12 C-97.02 12 -95.04 12 -93 12 C-93 11.34 -93 10.68 -93 10 C-90.03 9.505 -90.03 9.505 -87 9 C-87 8.34 -87 7.68 -87 7 C-84.36 7 -81.72 7 -79 7 C-79 6.34 -79 5.68 -79 5 C-78.04287109 4.90912109 -78.04287109 4.90912109 -77.06640625 4.81640625 C-76.24011719 4.73261719 -75.41382813 4.64882813 -74.5625 4.5625 C-73.73878906 4.48128906 -72.91507813 4.40007812 -72.06640625 4.31640625 C-70.01337975 4.21069185 -70.01337975 4.21069185 -69 3 C-66.45243896 2.71693766 -63.90489978 2.55184214 -61.34765625 2.37890625 C-58.81487227 2.20514276 -58.81487227 2.20514276 -57 0 C-54.98583984 -0.3347168 -54.98583984 -0.3347168 -52.4609375 -0.44921875 C-51.50243896 -0.49312744 -50.54394043 -0.53703613 -49.55639648 -0.58227539 C-48.50653564 -0.61699951 -47.4566748 -0.65172363 -46.375 -0.6875 C-45.29226807 -0.7280249 -44.20953613 -0.7685498 -43.09399414 -0.81030273 C-28.72252457 -1.2396788 -14.35818164 -0.6084326 0 0 Z " fill="#D8D9D9" transform="translate(1044,462)"/>
<path d="M0 0 C0.33 0 0.66 0 1 0 C1 77.22 1 154.44 1 234 C1.66 234 2.32 234 3 234 C3 232.68 3 231.36 3 230 C3.66 230 4.32 230 5 230 C5 231.65 5 233.3 5 235 C5.66 235.33 6.32 235.66 7 236 C6.01 236.33 5.02 236.66 4 237 C2.68 236.34 1.36 235.68 0 235 C0 157.45 0 79.9 0 0 Z " fill="#D8D8D8" transform="translate(334,1032)"/>
<path d="M0 0 C0.33 1.32 0.66 2.64 1 4 C0.34 4 -0.32 4 -1 4 C-1.061875 4.598125 -1.12375 5.19625 -1.1875 5.8125 C-2.31977322 8.8609279 -4.24532024 9.41605914 -7 11 C-7.33 11.99 -7.66 12.98 -8 14 C-9.32 14 -10.64 14 -12 14 C-12 13.34 -12 12.68 -12 12 C-11.34 12 -10.68 12 -10 12 C-10 11.34 -10 10.68 -10 10 C-7.625 7.375 -7.625 7.375 -5 5 C-4.34 5 -3.68 5 -3 5 C-3 4.34 -3 3.68 -3 3 C-2.01 3 -1.02 3 0 3 C0 2.01 0 1.02 0 0 Z " fill="#A1A1A1" transform="translate(892,507)"/>
<path d="M0 0 C1.32 0.33 2.64 0.66 4 1 C3.01 3.64 2.02 6.28 1 9 C0.34 9 -0.32 9 -1 9 C-1.33 9.99 -1.66 10.98 -2 12 C-2.26252625 7.66831683 -1.29243536 4.1196377 0 0 Z " fill="#C0A108" transform="translate(440,691)"/>
<path d="M0 0 C1.32 0.33 2.64 0.66 4 1 C3.34 1.66 2.68 2.32 2 3 C1.67 3.99 1.34 4.98 1 6 C0.34 6 -0.32 6 -1 6 C-1 7.65 -1 9.3 -1 11 C-1.66 11 -2.32 11 -3 11 C-3.33 11.99 -3.66 12.98 -4 14 C-4 12.68 -4 11.36 -4 10 C-3.34 10 -2.68 10 -2 10 C-2.04125 9.278125 -2.0825 8.55625 -2.125 7.8125 C-1.99078695 4.79270631 -1.24829381 2.73064271 0 0 Z " fill="#333333" transform="translate(402,1367)"/>
<path d="M0 0 C0.33 0 0.66 0 1 0 C1 2.31 1 4.62 1 7 C-0.65 7.33 -2.3 7.66 -4 8 C-4 7.01 -4 6.02 -4 5 C-3.34 4.67 -2.68 4.34 -2 4 C-0.86649466 1.98330173 -0.86649466 1.98330173 0 0 Z " fill="#8C8D8D" transform="translate(372,1199)"/>
<path d="M0 0 C0.33 1.32 0.66 2.64 1 4 C0.34 4 -0.32 4 -1 4 C-1.33 4.99 -1.66 5.98 -2 7 C-2.99 7 -3.98 7 -5 7 C-5 5 -5 5 -3 3 C-2.01 2.67 -1.02 2.34 0 2 C0 1.34 0 0.68 0 0 Z M-7 7 C-6.01 7.495 -6.01 7.495 -5 8 C-5.99 8.495 -5.99 8.495 -7 9 C-7 8.34 -7 7.68 -7 7 Z " fill="#BDBDBD" transform="translate(454,1102)"/>
<path d="M0 0 C0.99 0 1.98 0 3 0 C3 1.98 3 3.96 3 6 C1.35 6 -0.3 6 -2 6 C-2 5.34 -2 4.68 -2 4 C-1.34 4 -0.68 4 0 4 C0 2.68 0 1.36 0 0 Z " fill="#8D670A" transform="translate(94,582)"/>
<path d="M0 0 C0.66 0 1.32 0 2 0 C2 1.65 2 3.3 2 5 C2.66 5.33 3.32 5.66 4 6 C1 7 1 7 -1.1875 6.0625 C-1.785625 5.711875 -2.38375 5.36125 -3 5 C-2.67 4.34 -2.34 3.68 -2 3 C-1.34 3.33 -0.68 3.66 0 4 C0 2.68 0 1.36 0 0 Z " fill="#6D6E6E" transform="translate(337,1262)"/>
<path d="M0 0 C-0.66 0.66 -1.32 1.32 -2 2 C-2 2.33 -2 2.66 -2 3 C-3.98 3 -5.96 3 -8 3 C-8 2.01 -8 1.02 -8 0 C-4.94736336 -0.98120464 -3.05263664 -0.98120464 0 0 Z " fill="#C48E0B" transform="translate(348,802)"/>
<path d="M0 0 C0 0.66 0 1.32 0 2 C-1.32 2 -2.64 2 -4 2 C-4.33 2.99 -4.66 3.98 -5 5 C-5.99 5 -6.98 5 -8 5 C-8 3 -8 3 -6.8125 1.375 C-4.44439338 -0.42149467 -2.90102749 -0.23521845 0 0 Z " fill="#9A9C9C" transform="translate(548,1042)"/>
<path d="M0 0 C2.61885488 2.36944013 4.41866551 4.83733102 6 8 C5.67 8.99 5.34 9.98 5 11 C5 10.34 5 9.68 5 9 C4.01 8.67 3.02 8.34 2 8 C2 6.68 2 5.36 2 4 C1.34 4 0.68 4 0 4 C0 2.68 0 1.36 0 0 Z " fill="#D5AC03" transform="translate(104,720)"/>
<path d="M0 0 C1 3 1 3 0.0625 5.1875 C-0.4634375 6.0846875 -0.4634375 6.0846875 -1 7 C-2.32 6.67 -3.64 6.34 -5 6 C-4.67 5.34 -4.34 4.68 -4 4 C-3.34 4 -2.68 4 -2 4 C-2 3.34 -2 2.68 -2 2 C-1.34 2 -0.68 2 0 2 C0 1.34 0 0.68 0 0 Z " fill="#DAAD08" transform="translate(130,522)"/>
<path d="M0 0 C0 1.65 0 3.3 0 5 C-1.65 5 -3.3 5 -5 5 C-5 3 -5 3 -3.625 1.375 C-2 0 -2 0 0 0 Z " fill="#8E8F8F" transform="translate(392,1173)"/>
<path d="" fill="#848484" transform="translate(0,0)"/>
</svg>
